<svg xmlns="http://www.w3.org/2000/svg"  xmlns:xlink="http://www.w3.org/1999/xlink"  class="svg-bc-right-top standalone" width="100%" viewBox="202.0943955530222 115.00000000000001 145.81120889395555 145.81082249424105"><g data-paper-data="{&quot;fillRule&quot;:&quot;evenodd&quot;,&quot;fillRuleOriginal&quot;:&quot;evenodd&quot;,&quot;isIcon&quot;:true,&quot;iconStyle&quot;:&quot;standalone&quot;,&quot;selectedEffects&quot;:{&quot;container&quot;:&quot;&quot;,&quot;transformation&quot;:&quot;&quot;,&quot;pattern&quot;:&quot;&quot;},&quot;bounds&quot;:{&quot;x&quot;:202.0943955530222,&quot;y&quot;:115.00000000000001,&quot;width&quot;:145.81120889395555,&quot;height&quot;:145.81082249424105},&quot;iconType&quot;:&quot;icon&quot;,&quot;rawIconId&quot;:&quot;1720505&quot;,&quot;isDetailed&quot;:false,&quot;suitableAsStandaloneIcon&quot;:true}" fill="#d50032" fill-rule="evenodd"><path d="M274.99977,260.81082c-40.23179,0 -72.9054,-32.67347 -72.90538,-72.90538c0.00005,-40.23179 32.67358,-72.90544 72.90538,-72.90544c40.23179,0 72.90583,32.67365 72.90583,72.90544c0,40.23191 -32.67393,72.90538 -72.90583,72.90538zM250.70192,163.62541c0,-1.70119 -1.45536,-3.15666 -3.15666,-3.15666c-1.70119,0 -2.91921,1.45547 -2.91921,3.15666v48.60752c0,3.88853 6.07587,3.88853 6.07587,0zM323.61292,163.62541c0,-1.70119 -1.46053,-3.15666 -3.16217,-3.15666c-1.70165,0 -2.91301,1.45547 -2.91301,3.15666v48.60752c0,4.1316 6.07518,4.1316 6.07518,0zM277.92507,166.78792c0.24296,-1.7013 -1.21802,-3.16251 -2.91932,-3.16251c-1.7013,0 -3.15666,1.46121 -3.15666,3.16251v42.28835c0,4.1316 6.31895,4.1316 6.07598,0zM259.69723,172.6206c0.24296,-1.7013 -1.21802,-3.1624 -2.91932,-2.91932c-1.7013,0 -3.15666,1.21802 -3.15666,2.91932v30.62299c0.24307,3.88853 6.07598,3.88853 6.07598,0zM314.61807,172.6206c0,-1.7013 -1.45536,-3.1624 -3.15666,-2.91932c-1.7013,0 -3.16229,1.21802 -2.91932,2.91932v30.62299c0,3.88853 5.83291,3.88853 6.07598,0zM287.15759,175.77726c0,-1.7013 -1.45536,-3.15666 -3.15666,-3.15666c-1.70119,0 -2.91921,1.45536 -2.91921,3.15666v24.30382c0,4.1316 6.07587,4.1316 6.07587,0zM241.46939,178.69658c0.24296,-1.7013 -1.21802,-3.1624 -2.91932,-2.91932c-1.7013,0 -3.15666,1.21802 -3.15666,2.91932v18.47115c0,3.88865 6.07598,3.88865 6.07598,0zM296.39023,181.85324c0,-1.70119 -1.45547,-3.15666 -3.15666,-3.15666c-1.7013,0 -3.16229,1.45547 -2.91932,3.15666v12.15186c0,3.88853 5.83291,3.88853 6.07598,0zM232.47409,184.77257c0,-1.70119 -1.45536,-3.16229 -3.15666,-2.91932c-1.70119,0 -2.91921,1.21814 -2.91921,2.91932v6.31917c0,3.88853 6.07587,3.88853 6.07587,0zM265.7731,181.85324h-0.24319c-1.45823,0.24342 -2.67602,1.46121 -2.67602,3.16251v5.83267c0,4.1316 6.07587,4.1316 6.07587,0v-5.83267c0,-1.7013 -1.45536,-3.16251 -3.15666,-3.16251zM305.38543,184.77257c0,-1.70119 -1.46133,-2.91932 -3.16251,-2.91932c-1.7013,0 -2.91335,1.21814 -2.91335,2.91932v6.31917c0,3.88853 6.07587,3.88853 6.07587,0z" data-paper-data="{&quot;isPathIcon&quot;:true}" style="fill: rgb(213, 0, 50);"></path></g></svg>